<svg xmlns="http://www.w3.org/2000/svg" data-name="Layer 1" viewBox="0 0 75 95" x="0px" y="0px">
  <title>Watchdog</title>
  <rect x="67" y="61.3" width="6" height="11.3" transform="translate(-26.9,69.1) rotate(-45)"/>
  <rect x="64.3" y="32" width="11.3" height="6" transform="translate(-4.3,59.8) rotate(-45)"/>
  <rect x="69" y="48" width="12" height="6"/>
  <path d="M 35.8 27 V 38.6 L 56.2 51.7 l -1.7 7.2 C 53.8 62.3 50.9 64.7 47.7 64.7 H 37.6 L 21 82.4 l 4.4 4.7 L 40.2 71.4 h 7.5 C 53.8 71.4 59.2 66.9 60.6 60.5 l 2.8 -12 L 42.1 34.9 V 20 H 38.9 C 32.7 20 26.8 22.6 22.4 27.3 L 18 32 v 9.5 l 8.8 -9.4 C 29.3 29.4 32.4 27.7 35.8 27 Z"/>
</svg>