<svg width="256px" height="256px" viewBox="0 0 160 160" fill="none" xmlns="http://www.w3.org/2000/svg"><g id="SVGRepo_bgCarrier" stroke-width="0"></g><g id="SVGRepo_tracerCarrier" stroke-linecap="round" stroke-linejoin="round" stroke="#cccccc" stroke-width="3.8"></g><g id="SVGRepo_iconCarrier"> <path transform="matrix(1.2,0,0,1.1,-12.6,-12.1)" fill-rule="evenodd" clip-rule="evenodd" d="M 113.5 114.4 L 112.2 119.2 L 59.9 87.5 L 59.4 73.5 C 59.4 73.5 70.5 81.3 75 84.9 C 76 85.6 76.8 86.7 77.2 87.9 C 77.7 89.2 77.7 90.5 77.2 91.8 L 100.9 106.6 L 104.7 90.8 L 109.9 97.3 L 117.3 97.5 L 119.2 101.2 H 126.6 C 126.6 110.7 123.2 114.5 113.5 114.4 Z M 53.2 88.1 L 66.9 140.4 C 66.9 140.4 59.3 143.8 57 137.4 C 54.9 131.5 44.6 104.4 44.6 104.4 L 40.4 106.3 C 40.4 106.3 31.6 130.6 28.8 137.5 C 26 144.6 18.7 140.1 18.7 140.1 L 32.1 89.8 L 31.5 76.4 L 26.2 77.7 L 23 95.5 C 23 95.5 14.9 96.6 15.4 90 C 15.9 83.3 16.7 70.4 16.7 70.4 L 34.3 59.9 C 46.7 59.3 55 62.9 54 76.4 C 53.8 80.4 53.2 88.1 53.2 88.1 Z M 33.5 47.5 C 32.1 36.2 50.3 34 50.3 46.6 C 50.3 59.4 34.8 58.3 33.5 47.5 Z M 82.2 110.1 L 84.4 115.5 L 94.2 113.3 L 110.9 123.8 L 107.3 136.7 C 108.4 136.7 109.7 138.5 109.7 140.8 H 99.1 L 98.7 129.7 L 87.2 129.1 L 81.9 136.7 C 82.9 136.9 83.7 137.4 84.3 138.1 C 84.9 138.9 85.1 139.8 85 140.8 H 71.4 L 79.1 110.1 L 82.2 110.1 Z" fill="#000000"></path> </g></svg>