<svg width="256px" height="256px" viewBox="0 0 160 160" fill="none" xmlns="http://www.w3.org/2000/svg"><g id="SVGRepo_bgCarrier" stroke-width="0"></g><g id="SVGRepo_tracerCarrier" stroke-linecap="round" stroke-linejoin="round" stroke="#cccccc" stroke-width="3.8"></g><g id="SVGRepo_iconCarrier"> <path transform="matrix(1.4,0,0,1.4,-32.8,-39.6)" fill-rule="evenodd" clip-rule="evenodd" d="M 122.1 108.6 L 120.8 113.4 L 68.5 81.7 L 68 67.7 C 68 67.7 79.1 75.5 83.6 79.1 C 84.6 79.8 85.4 80.9 85.8 82.1 C 86.3 83.4 86.3 84.7 85.8 86 L 109.5 100.8 L 113.3 85 L 118.5 91.5 L 125.9 91.7 L 127.8 95.4 H 135.2 C 135.2 104.9 131.8 108.7 122.1 108.6 Z M 61.8 82.3 L 75.5 134.6 C 75.5 134.6 67.9 138 65.6 131.6 C 63.5 125.7 53.2 98.6 53.2 98.6 L 49 100.5 C 49 100.5 40.2 124.8 37.4 131.7 C 34.6 138.8 27.3 134.3 27.3 134.3 L 40.7 84 L 40.1 70.6 L 34.8 71.9 L 31.6 89.7 C 31.6 89.7 23.5 90.8 24 84.2 C 24.5 77.5 25.3 64.6 25.3 64.6 L 42.9 54.1 C 55.3 53.5 63.6 57.1 62.6 70.6 C 62.4 74.6 61.8 82.3 61.8 82.3 Z M 42.1 41.7 C 40.7 30.4 58.9 28.2 58.9 40.8 C 58.9 53.6 43.4 52.5 42.1 41.7 Z M 90.8 104.3 L 93 109.7 L 102.8 107.5 L 119.5 118 L 115.9 130.9 C 117 130.9 118.3 132.7 118.3 135 H 107.7 L 107.3 123.9 L 95.8 123.3 L 90.5 130.9 C 91.5 131.1 92.3 131.6 92.9 132.3 C 93.5 133.1 93.7 134 93.6 135 H 80 L 87.7 104.3 L 90.8 104.3 Z" fill="#000000"></path> </g></svg>