<svg xmlns="http://www.w3.org/2000/svg" data-name="Layer 1" viewBox="0 0 100 125" x="0px" y="0px"><title>Watchdog</title><rect x="67" y="61.34" width="6" height="11.31" transform="translate(-26.87 69.12) rotate(-45)"/><rect x="64.34" y="32" width="11.31" height="6" transform="translate(-4.25 59.75) rotate(-45)"/><rect x="70" y="48" width="12" height="6"/><path d="M35,26.27V36.7L54.55,48.43l-1.61,6.44A6.77,6.77,0,0,1,46.37,60H36.76L20.88,75.88l4.24,4.24L39.24,66h7.13a12.76,12.76,0,0,0,12.39-9.68l2.69-10.75L41,33.3V20H38a22.16,22.16,0,0,0-15.78,6.54L18,30.76v8.48l8.46-8.46A16.2,16.2,0,0,1,35,26.27Z"/></svg>